<?xml version="1.0" encoding="UTF-8"?>
<svg version="1.1" xmlns="http://www.w3.org/2000/svg" width="32" height="32">
<path d="M0 0 C10.56 0 21.12 0 32 0 C32 10.56 32 21.12 32 32 C21.44 32 10.88 32 0 32 C0 21.44 0 10.88 0 0 Z " fill="#101E2F" transform="translate(0,0)"/>
<path d="M0 0 C3.33008975 1.11002992 4.65983176 0.68516272 8 0 C8.66 0.33 9.32 0.66 10 1 C10.33 3.97 10.66 6.94 11 10 C0.44 10 -10.12 10 -21 10 C-21 3 -21 3 -19 0 C-15 0 -15 0 -13.1875 0.625 C-10.75771614 1.20412607 -10.75771614 1.20412607 -7.5 0 C-4.17731339 -0.94933903 -3.08457628 -1.21179782 0 0 Z " fill="#1C2A3B" transform="translate(21,22)"/>
<path d="M0 0 C0.66 0 1.32 0 2 0 C3.7265625 2.5546875 3.7265625 2.5546875 5.625 5.875 C6.25664062 6.96554688 6.88828125 8.05609375 7.5390625 9.1796875 C9 12 9 12 9 14 C3.72 14 -1.56 14 -7 14 C-5.58843021 10.47107553 -4.22615467 7.45137797 -2.375 4.1875 C-1.92898437 3.39730469 -1.48296875 2.60710938 -1.0234375 1.79296875 C-0.68570312 1.20128906 -0.34796875 0.60960937 0 0 Z " fill="#133953" transform="translate(15,5)"/>
<path d="M0 0 C1.875 0.625 1.875 0.625 4 2 C4.66 3.98 5.32 5.96 6 8 C0.72 8 -4.56 8 -10 8 C-6.79619983 5.86413322 -5.98060033 5.76867825 -2.3125 5.875 C-1.10013672 5.90207031 -1.10013672 5.90207031 0.13671875 5.9296875 C1.05904297 5.96449219 1.05904297 5.96449219 2 6 C1.34 5.01 0.68 4.02 0 3 C0 2.01 0 1.02 0 0 Z " fill="#143E5A" transform="translate(18,11)"/>
<path d="M0 0 C0.9590625 0.2784375 0.9590625 0.2784375 1.9375 0.5625 C2.9584375 0.7790625 2.9584375 0.7790625 4 1 C4.33 0.67 4.66 0.34 5 0 C6.99958364 -0.04080783 9.00045254 -0.04254356 11 0 C11 1.65 11 3.3 11 5 C7.33333333 5 3.66666667 5 0 5 C0 3.35 0 1.7 0 0 Z " fill="#616B75" transform="translate(6,22)"/>
<path d="M0 0 C0.99 0.33 1.98 0.66 3 1 C4.1875 3.5625 4.1875 3.5625 5 6 C-0.75 7.125 -0.75 7.125 -3 6 C-1.125 1.125 -1.125 1.125 0 0 Z " fill="#102234" transform="translate(15,11)"/>
<path d="M0 0 C2.96175123 0.61277612 4.38058783 1.25372522 7 3 C6.67 4.32 6.34 5.64 6 7 C5.34 6.34 4.68 5.68 4 5 C2.68 5 1.36 5 0 5 C0 3.35 0 1.7 0 0 Z " fill="#0A6693" transform="translate(17,21)"/>
<path d="M0 0 C1.2065625 0.0309375 1.2065625 0.0309375 2.4375 0.0625 C2.7675 1.3825 3.0975 2.7025 3.4375 4.0625 C1.7875 4.3925 0.1375 4.7225 -1.5625 5.0625 C-1.5625 4.0725 -1.5625 3.0825 -1.5625 2.0625 C-2.2225 1.7325 -2.8825 1.4025 -3.5625 1.0625 C-2.5625 0.0625 -2.5625 0.0625 0 0 Z " fill="#0C5D87" transform="translate(27.5625,21.9375)"/>
<path d="M0 0 C2.31 0.33 4.62 0.66 7 1 C7 1.66 7 2.32 7 3 C4.69 3.66 2.38 4.32 0 5 C0 3.35 0 1.7 0 0 Z " fill="#9DA3A9" transform="translate(6,22)"/>
</svg>
